<?xml version="1.0" encoding="UTF-8" standalone="no"?><!-- Generator: Gravit.io --><svg xmlns="http://www.w3.org/2000/svg" xmlns:xlink="http://www.w3.org/1999/xlink" style="isolation:isolate" viewBox="0 0 500 500" width="500pt" height="500pt"><defs><clipPath id="_clipPath_JVambRmE7WMxB9ASXIREzcVjkDCq88Lm"><rect width="500" height="500"/></clipPath></defs><g clip-path="url(#_clipPath_JVambRmE7WMxB9ASXIREzcVjkDCq88Lm)"><g><path d=" M 71.137 125 L 428.863 125 L 450 475 L 50 475 L 71.137 125 Z  M 89.88 145 L 410.12 145 L 428.863 455 L 71.137 455 L 89.88 145 Z " fill-rule="evenodd" fill="rgb(0,0,0)"/><path d=" M 315.3 361.5 L 323.8 356.2 L 334.4 373.2 L 325.9 378.5 C 320.1 382.1 314.1 385.2 308 388 C 302 390.6 295.9 392.9 289.6 394.6 C 283.4 396.4 277 397.8 270.6 398.6 C 264 399.5 257.3 400 250.6 400 C 243.9 400 237.2 399.5 230.6 398.6 C 224.2 397.8 217.8 396.4 211.6 394.6 C 205.3 392.9 199.2 390.6 193.2 388 C 187.1 385.2 181.1 382.1 175.3 378.5 L 166.8 373.2 L 177.4 356.2 L 185.9 361.5 C 190.8 364.6 196 367.3 201.4 369.7 C 206.5 372 211.7 373.9 217.1 375.4 C 222.4 376.9 227.8 378.1 233.3 378.8 C 239.1 379.6 244.8 380 250.6 380 C 256.4 380 262.1 379.6 267.9 378.8 C 273.4 378.1 278.8 376.9 284.1 375.4 C 289.5 373.9 294.7 372 299.8 369.7 C 305.2 367.3 310.4 364.6 315.3 361.5 Z " fill="rgb(0,0,0)"/><path d=" M 231.3 273.7 L 227.6 264.4 L 246.2 257 L 249.9 266.3 L 275.4 330 L 240.6 330 L 230.6 330 L 230.6 310 L 240.6 310 L 245.8 310 L 231.3 273.7 Z " fill="rgb(0,0,0)"/><path d=" M 153 236.7 L 146.4 244.1 L 131.5 230.8 L 138.2 223.3 C 140.1 221.2 142.2 219.3 144.5 217.7 C 146.8 216 149.3 214.6 151.9 213.5 C 154.7 212.3 157.6 211.5 160.6 210.9 C 163.9 210.3 167.2 210 170.6 210 C 174 210 177.3 210.3 180.6 210.9 C 183.6 211.5 186.5 212.3 189.3 213.5 C 191.9 214.6 194.4 216 196.7 217.7 C 199 219.3 201.1 221.2 203 223.3 L 209.7 230.8 L 194.8 244.1 L 188.2 236.7 C 187.2 235.7 186.2 234.7 185.1 233.9 C 184 233.1 182.8 232.5 181.5 231.9 C 180.1 231.3 178.5 230.9 177 230.6 C 174.9 230.2 172.7 230 170.6 230 C 168.5 230 166.3 230.2 164.2 230.6 C 162.7 230.9 161.1 231.3 159.7 231.9 C 158.4 232.5 157.2 233.1 156.1 233.9 C 155 234.7 154 235.7 153 236.7 Z " fill="rgb(0,0,0)"/><path d=" M 313 236.7 L 306.4 244.1 L 291.5 230.8 L 298.2 223.3 C 300.1 221.2 302.2 219.3 304.5 217.7 C 306.8 216 309.3 214.6 311.9 213.5 C 314.7 212.3 317.6 211.5 320.6 210.9 C 323.9 210.3 327.2 210 330.6 210 C 334 210 337.3 210.3 340.6 210.9 C 343.6 211.5 346.5 212.3 349.3 213.5 C 351.9 214.6 354.4 216 356.7 217.7 C 359 219.3 361.1 221.2 363 223.3 L 369.7 230.8 L 354.8 244.1 L 348.2 236.7 C 347.2 235.7 346.2 234.7 345.1 233.9 C 344 233.1 342.8 232.5 341.5 231.9 C 340.1 231.3 338.5 230.9 337 230.6 C 334.9 230.2 332.7 230 330.6 230 C 328.5 230 326.3 230.2 324.2 230.6 C 322.7 230.9 321.1 231.3 319.7 231.9 C 318.4 232.5 317.2 233.1 316.1 233.9 C 315 234.7 314 235.7 313 236.7 Z " fill="rgb(0,0,0)"/><path d=" M 145.6 145 L 145.6 60.9 L 181.5 25 L 205.6 25 L 205.6 145 L 145.6 145 Z  M 185.6 49.1 L 185.6 125 L 165.6 125 L 165.6 69.1 L 185.6 49.1 Z " fill-rule="evenodd" fill="rgb(0,0,0)"/><path d=" M 355.6 145 L 355.6 60.9 L 319.7 25 L 295.6 25 L 295.6 145 L 355.6 145 Z  M 315.6 49.1 L 315.6 125 L 335.6 125 L 335.6 69.1 L 315.6 49.1 Z " fill-rule="evenodd" fill="rgb(0,0,0)"/><path d=" M 185.6 25 L 315.6 25 L 315.6 85 L 185.6 85 L 185.6 25 Z  M 205.6 45 L 295.6 45 L 295.6 65 L 205.6 65 L 205.6 45 Z " fill-rule="evenodd" fill="rgb(0,0,0)"/></g></g></svg>