<?xml version="1.0" encoding="UTF-8" standalone="no"?><!-- Generator: Gravit.io --><svg xmlns="http://www.w3.org/2000/svg" xmlns:xlink="http://www.w3.org/1999/xlink" style="isolation:isolate" viewBox="0 0 500 500" width="500pt" height="500pt"><defs><clipPath id="_clipPath_OkooRZ2SQA2OBxQNnN1PXwlwXra0WpgF"><rect width="500" height="500"/></clipPath></defs><g clip-path="url(#_clipPath_OkooRZ2SQA2OBxQNnN1PXwlwXra0WpgF)"><g><path d=" M 70 125 L 430 125 L 450 475 L 50 475 L 70 125 Z " fill="rgb(118,244,219)"/><path d=" M 314.7 361.5 L 323.2 356.2 L 333.8 373.2 L 325.3 378.5 C 319.5 382.1 313.5 385.2 307.4 388 C 301.4 390.6 295.3 392.9 289 394.6 C 282.8 396.4 276.4 397.8 270 398.6 C 263.4 399.5 256.7 400 250 400 C 243.3 400 236.6 399.5 230 398.6 C 223.6 397.8 217.2 396.4 211 394.6 C 204.7 392.9 198.6 390.6 192.6 388 C 186.5 385.2 180.5 382.1 174.7 378.5 L 166.2 373.2 L 176.8 356.2 L 185.3 361.5 C 190.2 364.6 195.4 367.3 200.8 369.7 C 205.9 372 211.1 373.9 216.5 375.4 C 221.8 376.9 227.2 378.1 232.7 378.8 C 238.5 379.6 244.2 380 250 380 C 255.8 380 261.5 379.6 267.3 378.8 C 272.8 378.1 278.2 376.9 283.5 375.4 C 288.9 373.9 294.1 372 299.2 369.7 C 304.6 367.3 309.8 364.6 314.7 361.5 Z " fill="rgb(0,0,0)"/><path d=" M 230.7 273.7 L 227 264.4 L 245.6 257 L 249.3 266.3 L 274.8 330 L 240 330 L 230 330 L 230 310 L 240 310 L 245.2 310 L 230.7 273.7 Z " fill="rgb(0,0,0)"/><path d=" M 152.4 236.7 L 145.8 244.1 L 130.9 230.8 L 137.6 223.3 C 139.5 221.2 141.6 219.3 143.9 217.7 C 146.2 216 148.7 214.6 151.3 213.5 C 154.1 212.3 157 211.5 160 210.9 C 163.3 210.3 166.6 210 170 210 C 173.4 210 176.7 210.3 180 210.9 C 183 211.5 185.9 212.3 188.7 213.5 C 191.3 214.6 193.8 216 196.1 217.7 C 198.4 219.3 200.5 221.2 202.4 223.3 L 209.1 230.8 L 194.2 244.1 L 187.6 236.7 C 186.6 235.7 185.6 234.7 184.5 233.9 C 183.4 233.1 182.2 232.5 180.9 231.9 C 179.5 231.3 177.9 230.9 176.4 230.6 C 174.3 230.2 172.1 230 170 230 C 167.9 230 165.7 230.2 163.6 230.6 C 162.1 230.9 160.5 231.3 159.1 231.9 C 157.8 232.5 156.6 233.1 155.5 233.9 C 154.4 234.7 153.4 235.7 152.4 236.7 Z " fill="rgb(0,0,0)"/><path d=" M 312.4 236.7 L 305.8 244.1 L 290.9 230.8 L 297.6 223.3 C 299.5 221.2 301.6 219.3 303.9 217.7 C 306.2 216 308.7 214.6 311.3 213.5 C 314.1 212.3 317 211.5 320 210.9 C 323.3 210.3 326.6 210 330 210 C 333.4 210 336.7 210.3 340 210.9 C 343 211.5 345.9 212.3 348.7 213.5 C 351.3 214.6 353.8 216 356.1 217.7 C 358.4 219.3 360.5 221.2 362.4 223.3 L 369.1 230.8 L 354.2 244.1 L 347.6 236.7 C 346.6 235.7 345.6 234.7 344.5 233.9 C 343.4 233.1 342.2 232.5 340.9 231.9 C 339.5 231.3 337.9 230.9 336.4 230.6 C 334.3 230.2 332.1 230 330 230 C 327.9 230 325.7 230.2 323.6 230.6 C 322.1 230.9 320.5 231.3 319.1 231.9 C 317.8 232.5 316.6 233.1 315.5 233.9 C 314.4 234.7 313.4 235.7 312.4 236.7 Z " fill="rgb(0,0,0)"/><path d=" M 145 125 L 195 125 L 195 25 L 175 25 L 145 55 L 145 125 Z " fill="rgb(85,200,177)"/><path d=" M 305 125 L 305 25 L 325 25 L 355 55 L 355 125 L 305 125 Z " fill="rgb(85,200,177)"/><rect x="195" y="25" width="110" height="50" transform="matrix(1,0,0,1,0,0)" fill="rgb(57,155,136)"/></g></g></svg>