<?xml version="1.0" encoding="UTF-8" standalone="no"?><!-- Generator: Gravit.io --><svg xmlns="http://www.w3.org/2000/svg" xmlns:xlink="http://www.w3.org/1999/xlink" style="isolation:isolate" viewBox="0 0 500 500" width="500pt" height="500pt"><defs><clipPath id="_clipPath_OUsmPbIVVJpu2t7v0HzFC0xbBYAuftWA"><rect width="500" height="500"/></clipPath></defs><g clip-path="url(#_clipPath_OUsmPbIVVJpu2t7v0HzFC0xbBYAuftWA)"><rect x="0" y="0" width="500" height="500" transform="matrix(1,0,0,1,0,0)" fill="rgb(240,240,240)"/><path d=" M 115 190 L 175 190 L 175 60 L 160 60 L 115 105 L 115 190 Z " fill="rgb(85,200,177)"/><path d=" M 325 190 L 325 60 L 340 60 L 385 105 L 385 190 L 325 190 Z " fill="rgb(85,200,177)"/><rect x="175" y="60" width="150" height="60" transform="matrix(1,0,0,1,0,0)" fill="rgb(57,155,136)"/><rect x="0" y="190" width="500" height="310" transform="matrix(1,0,0,1,0,0)" fill="rgb(118,244,219)"/><path d=" M 314.7 391.5 L 323.2 386.2 L 333.8 403.2 L 325.3 408.5 C 319.5 412.1 313.5 415.2 307.4 418 C 301.4 420.6 295.3 422.9 289 424.6 C 282.8 426.4 276.4 427.8 270 428.6 C 263.4 429.5 256.7 430 250 430 C 243.3 430 236.6 429.5 230 428.6 C 223.6 427.8 217.2 426.4 211 424.6 C 204.7 422.9 198.6 420.6 192.6 418 C 186.5 415.2 180.5 412.1 174.7 408.5 L 166.2 403.2 L 176.8 386.2 L 185.3 391.5 C 190.2 394.6 195.4 397.3 200.8 399.7 C 205.9 402 211.1 403.9 216.5 405.4 C 221.8 406.9 227.2 408.1 232.7 408.8 C 238.5 409.6 244.2 410 250 410 C 255.8 410 261.5 409.6 267.3 408.8 C 272.8 408.1 278.2 406.9 283.5 405.4 C 288.9 403.9 294.1 402 299.2 399.7 C 304.6 397.3 309.8 394.6 314.7 391.5 Z " fill="rgb(0,0,0)"/><path d=" M 230.7 308.7 L 227 299.4 L 245.6 292 L 249.3 301.3 L 274.8 365 L 240 365 L 230 365 L 230 345 L 240 345 L 245.2 345 L 230.7 308.7 Z " fill="rgb(0,0,0)"/><path d=" M 152.4 271.7 L 145.8 279.1 L 130.9 265.8 L 137.6 258.3 C 139.5 256.2 141.6 254.3 143.9 252.7 C 146.2 251 148.7 249.6 151.3 248.5 C 154.1 247.3 157 246.5 160 245.9 C 163.3 245.3 166.6 245 170 245 C 173.4 245 176.7 245.3 180 245.9 C 183 246.5 185.9 247.3 188.7 248.5 C 191.3 249.6 193.8 251 196.1 252.7 C 198.4 254.3 200.5 256.2 202.4 258.3 L 209.1 265.8 L 194.2 279.1 L 187.6 271.7 C 186.6 270.7 185.6 269.7 184.5 268.9 C 183.4 268.1 182.2 267.5 180.9 266.9 C 179.5 266.3 177.9 265.9 176.4 265.6 C 174.3 265.2 172.1 265 170 265 C 167.9 265 165.7 265.2 163.6 265.6 C 162.1 265.9 160.5 266.3 159.1 266.9 C 157.8 267.5 156.6 268.1 155.5 268.9 C 154.4 269.7 153.4 270.7 152.4 271.7 Z " fill="rgb(0,0,0)"/><path d=" M 312.4 271.7 L 305.8 279.1 L 290.9 265.8 L 297.6 258.3 C 299.5 256.2 301.6 254.3 303.9 252.7 C 306.2 251 308.7 249.6 311.3 248.5 C 314.1 247.3 317 246.5 320 245.9 C 323.3 245.3 326.6 245 330 245 C 333.4 245 336.7 245.3 340 245.9 C 343 246.5 345.9 247.3 348.7 248.5 C 351.3 249.6 353.8 251 356.1 252.7 C 358.4 254.3 360.5 256.2 362.4 258.3 L 369.1 265.8 L 354.2 279.1 L 347.6 271.7 C 346.6 270.7 345.6 269.7 344.5 268.9 C 343.4 268.1 342.2 267.5 340.9 266.9 C 339.5 266.3 337.9 265.9 336.4 265.6 C 334.3 265.2 332.1 265 330 265 C 327.9 265 325.7 265.2 323.6 265.6 C 322.1 265.9 320.5 266.3 319.1 266.9 C 317.8 267.5 316.6 268.1 315.5 268.9 C 314.4 269.7 313.4 270.7 312.4 271.7 Z " fill="rgb(0,0,0)"/></g></svg>